<?xml version="1.0" standalone="no"?>
<!DOCTYPE svg PUBLIC "-//W3C//DTD SVG 20010904//EN"
 "http://www.w3.org/TR/2001/REC-SVG-20010904/DTD/svg10.dtd">
<svg version="1.0" xmlns="http://www.w3.org/2000/svg"
 width="1280.000000pt" height="873.000000pt" viewBox="0 0 1280.000000 873.000000"
 preserveAspectRatio="xMidYMid meet">
<metadata>
Created by potrace 1.15, written by Peter Selinger 2001-2017
</metadata>
<g transform="translate(0.000000,873.000000) scale(0.100000,-0.100000)"
fill="#000000" stroke="none">
<path d="M6520 8709 c-30 -11 -76 -27 -101 -34 -73 -21 -100 -39 -182 -117
-70 -68 -76 -77 -87 -132 -15 -75 -8 -271 17 -458 l19 -136 47 -51 c26 -27 47
-55 47 -62 0 -6 10 -24 21 -41 20 -27 21 -38 15 -116 -7 -82 -10 -90 -47 -137
-22 -27 -63 -80 -90 -117 l-49 -66 -143 -60 c-78 -33 -205 -86 -281 -116 -77
-31 -156 -67 -176 -80 -74 -49 -98 -134 -172 -611 l-53 -340 2 -265 c1 -178 9
-334 22 -475 11 -115 30 -325 41 -465 11 -141 26 -277 34 -303 15 -51 66 -146
134 -252 l45 -70 -22 -160 c-12 -88 -24 -172 -27 -187 -5 -24 0 -29 33 -45 43
-21 31 21 108 -372 26 -129 73 -343 105 -474 33 -132 64 -274 70 -316 29 -222
66 -779 115 -1726 15 -291 22 -385 31 -418 8 -25 70 -54 137 -62 31 -4 57 -12
57 -17 0 -6 -30 -69 -66 -141 -60 -119 -65 -134 -59 -173 3 -25 18 -57 33 -75
l26 -32 156 6 c95 4 184 13 230 24 l75 18 16 60 c13 51 19 60 47 69 61 21 77
47 80 139 3 60 0 87 -11 102 -12 16 -13 23 -2 40 17 26 35 248 35 424 0 125
-5 159 -54 406 -30 149 -59 322 -65 385 -15 161 -13 776 4 1215 7 204 17 495
21 648 4 152 10 277 14 277 10 0 56 -178 74 -290 9 -52 27 -203 41 -335 14
-132 34 -319 45 -415 35 -309 60 -668 66 -955 6 -278 6 -282 -26 -500 -30
-201 -33 -247 -37 -531 -5 -300 -5 -312 16 -351 11 -23 26 -43 32 -45 10 -3
10 -12 1 -38 -16 -46 -15 -135 3 -169 8 -16 37 -43 65 -61 27 -18 50 -35 50
-39 0 -3 19 -25 41 -49 l41 -42 107 0 c189 0 291 30 343 100 17 23 17 29 4 73
-8 26 -45 92 -82 148 -54 80 -66 104 -58 117 6 9 43 28 83 43 40 14 77 32 82
40 6 8 7 203 3 504 -8 706 8 1464 40 1820 14 154 33 341 42 415 9 74 19 248
23 385 l6 250 44 3 44 3 -7 122 c-3 67 -11 162 -17 210 l-11 89 55 83 c70 105
109 182 136 270 29 94 67 305 80 445 16 166 13 713 -4 1010 -41 707 -69 944
-117 1005 -27 34 -59 47 -288 112 -294 83 -437 148 -511 231 -61 70 -88 121
-95 185 -6 54 -5 60 29 111 43 65 54 104 63 218 6 70 4 92 -9 111 -12 18 -16
63 -19 210 l-3 187 -90 90 c-49 49 -103 94 -120 100 -39 12 -203 40 -235 40
-14 -1 -50 -10 -80 -21z m550 -1278 c0 -63 -23 -187 -40 -220 -30 -58 -109
-161 -123 -161 -8 0 -56 41 -107 90 l-93 91 29 31 c16 17 85 82 153 146 l125
115 28 -32 c17 -19 28 -43 28 -60z m-606 -60 c87 -88 126 -134 120 -143 -12
-21 -140 -171 -172 -201 l-29 -28 -32 71 c-17 39 -45 127 -61 195 l-30 124 30
42 c16 23 30 48 30 56 0 7 4 13 8 13 4 0 66 -58 136 -129z m546 -436 c-34
-230 -66 -405 -75 -405 -1 0 -13 28 -26 63 -39 106 -155 352 -188 401 l-32 46
42 50 42 49 51 -42 c87 -73 84 -71 102 -57 8 8 38 47 66 87 28 40 52 72 53 71
1 -2 -15 -120 -35 -263z m-461 149 c27 -45 27 -48 -8 -195 -17 -68 -35 -155
-42 -192 -6 -38 -15 -65 -20 -60 -16 16 -120 315 -134 385 l-6 33 20 -32 c11
-18 25 -33 30 -33 5 0 37 29 72 65 34 36 64 65 65 65 1 0 11 -16 23 -36z"/>
<path d="M10330 4375 l0 -4325 1235 0 1235 0 0 4325 0 4325 -1235 0 -1235 0 0
-4325z"/>
<path d="M0 4360 l0 -4320 1305 0 1305 0 0 4320 0 4320 -1305 0 -1305 0 0
-4320z"/>
<path d="M3734 8451 c-83 -32 -132 -67 -167 -119 -41 -58 -47 -87 -57 -237 -6
-77 -15 -158 -21 -181 -21 -80 30 -251 87 -289 29 -19 55 -72 49 -101 -2 -10
-7 -36 -10 -57 -5 -33 -15 -43 -78 -85 -100 -67 -281 -173 -477 -277 -91 -49
-186 -102 -212 -119 -56 -36 -56 -33 -93 -331 -54 -434 -67 -769 -63 -1634 l3
-724 40 -14 40 -13 0 -168 c0 -158 1 -169 24 -209 14 -25 49 -60 83 -83 46
-33 58 -47 58 -68 -1 -189 -35 -819 -56 -1032 l-26 -275 12 -415 c10 -364 7
-763 -6 -812 -3 -12 5 -19 31 -28 19 -6 35 -14 35 -16 0 -17 -41 -75 -129
-184 -117 -145 -136 -178 -127 -228 9 -61 29 -71 162 -87 207 -25 225 -21 334
69 35 30 65 46 82 46 20 0 42 16 85 61 77 80 82 92 83 175 0 38 5 75 10 80 7
7 13 126 16 315 6 337 21 537 59 769 25 151 45 230 221 875 47 170 94 346 104
390 28 122 70 367 70 410 0 22 4 35 8 30 12 -14 52 -211 69 -340 13 -103 26
-768 37 -1921 1 -165 6 -306 10 -313 5 -7 11 -54 15 -104 6 -86 7 -92 29 -95
13 -2 21 -9 18 -15 -43 -102 -44 -196 -2 -233 13 -11 68 -35 124 -53 62 -20
120 -46 153 -70 104 -73 145 -92 236 -107 165 -26 309 -13 390 37 33 21 42 53
26 94 -3 10 -76 70 -162 133 -162 120 -271 219 -271 246 0 9 11 18 25 22 25 6
25 8 25 108 1 267 33 618 90 956 74 447 98 783 85 1221 l-7 227 74 50 c81 54
174 149 194 197 13 32 57 225 71 310 l8 50 48 3 47 3 0 97 c0 257 -35 1412
-51 1667 -14 231 -72 647 -110 782 -52 189 -51 186 -136 227 -41 20 -161 70
-266 111 -300 118 -317 126 -378 177 -72 59 -79 72 -79 142 0 85 18 152 45
170 16 10 27 32 34 66 12 56 14 205 3 233 -4 10 -4 65 0 123 11 142 3 168 -78
254 -88 93 -140 118 -275 130 -136 12 -132 12 -215 -19z"/>
<path d="M8810 8341 c-89 -8 -144 -35 -207 -104 -92 -100 -98 -153 -53 -456
33 -228 51 -288 117 -395 41 -67 47 -121 18 -175 -34 -67 -147 -165 -290 -254
-154 -94 -199 -132 -214 -180 -16 -48 -48 -249 -73 -452 -20 -166 -22 -225
-23 -745 l0 -565 35 -69 c21 -43 60 -95 98 -133 l62 -64 0 -117 c0 -286 19
-496 65 -727 87 -436 203 -1248 212 -1480 7 -193 -27 -478 -94 -780 l-46 -210
-56 -78 -56 -79 -185 -93 c-102 -51 -193 -102 -203 -113 -14 -16 -17 -29 -12
-54 17 -82 93 -107 265 -89 162 18 208 31 276 77 105 72 106 72 239 67 119 -5
121 -5 192 27 40 18 75 40 77 49 3 9 10 42 15 74 17 94 30 133 50 151 25 22
27 63 46 681 9 264 20 530 25 590 5 61 17 196 25 300 9 105 19 228 23 275 l7
85 122 -365 c68 -201 129 -394 137 -430 28 -126 76 -487 96 -725 11 -132 29
-348 40 -479 12 -132 23 -242 26 -245 3 -4 27 -11 52 -16 l47 -10 3 -59 c4
-85 -25 -137 -165 -290 -166 -181 -176 -199 -130 -250 31 -36 162 -61 272 -53
75 6 206 41 267 73 14 7 57 47 94 89 39 43 75 75 86 75 25 0 101 52 121 84 24
37 22 163 -4 262 -20 78 -21 90 -14 799 l6 720 -25 97 c-29 108 -60 275 -136
723 -28 165 -62 350 -77 410 -21 93 -25 126 -20 216 5 109 16 149 44 149 13 0
15 8 9 53 -3 28 -11 124 -17 212 -6 88 -26 284 -45 436 -19 152 -34 288 -34
303 0 18 40 84 119 199 66 95 129 190 140 212 11 22 27 90 35 152 14 101 14
132 1 305 -31 395 -84 787 -131 972 -31 123 -87 159 -408 260 l-207 65 -42 48
c-23 26 -68 76 -100 110 l-59 62 5 58 c2 36 18 91 41 146 31 73 37 100 39 165
1 96 -25 267 -48 313 -32 63 -96 119 -184 160 -91 42 -114 45 -291 30z"/>
</g>
</svg>
