
<svg version="1.1" xmlns="http://www.w3.org/2000/svg" xmlns:xlink="http://www.w3.org/1999/xlink" x="0px" y="0px" viewBox="0 0 1000 1000" enable-background="new 0 0 1000 1000" xml:space="preserve">
<style>
path{
    fill:red;
}
</style>
<g><g transform="translate(0.000000,511.000000) scale(0.100000,-0.100000)"><path d="M5315.8,2690.2c-28.7-80.4-1521.7-5150.7-1521.7-5164.1c0-11.5,191.4-19.1,488.1-19.1c444.1,0,488.1,3.8,505.3,34.5c9.6,17.2,354.1,1173.3,765.6,2568.7c413.4,1395.4,754.1,2551.4,759.9,2570.6c9.6,30.6-22.9,32.5-490,32.5C5442.1,2713.1,5321.6,2707.4,5315.8,2690.2z"/><path d="M1866.7,936.9L100,119.6l5.7-390.5l3.8-390.5l1760.9-817.3L3631.4-2296l5.7,518.7c1.9,283.3-1.9,522.5-9.6,530.2c-9.6,7.7-501.5,225.9-1096.8,486.2S1443.7-282.4,1436-276.6c-7.7,7.7,480.4,227.8,1081.4,490c602.9,262.2,1100.6,482.3,1110.2,490c7.7,5.7,11.5,245,9.6,532.1l-5.7,518.7L1866.7,936.9z"/><path d="M6362.8,1227.8l5.7-528.3L7494,219.1c618.2-264.1,1123.6-484.3,1123.6-490c0-5.7-505.3-225.8-1121.6-488.1c-616.3-264.1-1125.5-488.1-1129.3-499.6c-3.8-9.6-5.8-248.8-3.8-528.3l5.7-507.2l1760.9,805.8l1760.9,805.8l5.7,409.6l3.8,411.5L8163.9,931.1c-957,436.4-1753.3,800.1-1772.4,809.7C6360.9,1756.1,6359,1729.3,6362.8,1227.8z"/></g></g>
</svg>