
<svg version="1.1" xmlns="http://www.w3.org/2000/svg" xmlns:xlink="http://www.w3.org/1999/xlink" x="0px" y="0px" viewBox="0 0 1000 1000" enable-background="new 0 0 1000 1000" xml:space="preserve">
<style>
path{
    fill:blue;
}
</style>
<g><g><path d="M384.2,772.2c-60.3,0-109.4,49.1-109.4,109.4c0,60.3,49.1,109.4,109.4,109.4c60.3,0,109.4-49.1,109.4-109.4C493.6,821.3,444.5,772.2,384.2,772.2z M384.2,924.2c-23.5,0-42.5-19.1-42.5-42.6c0-23.5,19.1-42.5,42.5-42.5c23.5,0,42.5,19.1,42.5,42.5C426.7,905.1,407.6,924.2,384.2,924.2z"/><path d="M758.6,772.2c-60.3,0-109.4,49.1-109.4,109.4c0,60.3,49.1,109.4,109.4,109.4c60.3,0,109.4-49.1,109.4-109.4C868,821.3,818.9,772.2,758.6,772.2z M758.6,924.2c-23.5,0-42.5-19.1-42.5-42.6c0-23.5,19.1-42.5,42.5-42.5c23.5,0,42.6,19.1,42.6,42.5C801.1,905.1,782,924.2,758.6,924.2z"/><path d="M860.4,758.5L990,260.2H221.9l-37.4-143.8H10v66.9h122.8l149.6,575.3L860.4,758.5L860.4,758.5z M649.2,470.9v77H493.6v-77H649.2z M493.6,404v-77h155.6v77H493.6z M716,470.9h150.1l-20,77H716V470.9z M649.2,614.7v77H493.6v-77H649.2z M426.7,547.8H296.7l-20-77h150.1V547.8z M314.1,614.7h112.7v77h-92.7L314.1,614.7z M716,691.7v-77h112.7l-20,77H716z M883.5,404H716v-77h187.5L883.5,404z M426.7,327.1v77H259.3l-20-77H426.7z"/><polygon points="545.7,154.8 619.2,228.3 666.5,181 593,107.5 635.1,65.4 447.1,8.9 503.5,196.9 "/></g><g></g><g></g><g></g><g></g><g></g><g></g><g></g><g></g><g></g><g></g><g></g><g></g><g></g><g></g><g></g></g>
</svg>