<svg xmlns="http://www.w3.org/2000/svg" viewBox="0 0 154.86159 11.82638">
  <title>underline-shade</title><path
    d="M1.447,11.82514Q77.38275,9.03717,153.386,10.3635c1.64143.02866,2.10573-2.69659.39876-2.94642A700.77458,700.77458,0,0,0,8.00864,1.39267c-1.91.12093-1.9449,3.06023,0,3q72.14058-2.234,144.30467.56872v-3L32.56466,7.08885c-1.92327.08235-1.93358,3.08279,0,3L152.31332,4.96139a1.50092,1.50092,0,0,0,0-3Q80.19259-.84114,8.00864,1.39267v3a697.10067,697.10067,0,0,1,144.97856,5.91724L153.386,7.3635Q77.41066,6.0369,1.447,8.82514c-1.92471.07067-1.934,3.071,0,3Z"
    fill="#b73040"/></svg>