<svg version="1.1" id="Layer_1" xmlns="http://www.w3.org/2000/svg" xmlns:xlink="http://www.w3.org/1999/xlink" x="0px" y="0px"
                        viewBox="0 0 150 150" style="enable-background:new 0 0 150 150;" xml:space="preserve">
                        <style type="text/css">
                          .st0{fill:#29282C;}
                          .st1{fill:#2A292E;}
                        </style>
                        <g>
                          <path class="st0" d="M8.2,27.3c-0.3-0.9,0.5-1,1.1-1.2c5.9-2.2,11.9-4.3,17.8-6.5C42.6,14,58,8.4,73.4,2.8c0.8-0.3,1.6-0.4,2.5-0.1
                            c21.3,7.8,42.6,15.5,64,23.2c1.3,0.5,1.5,1,1.4,2.3c-1,8.5-1.9,17.1-2.9,25.6c-0.7,6.2-1.5,12.4-2.2,18.6c-0.8,7.3-1.6,14.7-2.4,22
                            c-0.7,6.2-1.6,12.4-2.1,18.6c-0.2,2.6-1.4,3.7-3.4,4.8c-17.4,9.7-34.7,19.5-52.1,29.3c-1,0.6-1.8,0.6-2.8,0
                            c-18-10.2-36-20.3-54.1-30.4c-0.8-0.5-1.1-1-1.2-1.9c-0.7-6.6-1.5-13.1-2.2-19.7c-0.7-6.3-1.4-12.6-2.1-18.9
                            c-0.8-7.2-1.7-14.5-2.5-21.7C10.4,46.3,9.4,38.1,8.5,30C8.4,29.1,8.3,28.3,8.2,27.3z M74.8,18.3c-0.3,0.6-0.4,0.9-0.5,1.1
                            C68.1,33.6,61.8,47.8,55.6,62c-7.3,16.7-14.7,33.4-22.1,50.1c-0.6,1.3-0.2,1.4,1,1.4c4.2,0,8.4-0.1,12.6,0c1.2,0,1.7-0.4,2.1-1.4
                            c2.4-6.2,4.8-12.3,7.2-18.5c0.4-1,0.8-1.4,1.9-1.4c10.8,0.1,21.7,0.1,32.5,0.1c1,0,1.5,0.1,1.9,1.2c2.4,6.3,4.9,12.5,7.3,18.7
                            c0.4,1,0.8,1.3,1.9,1.3c4.4-0.1,8.8-0.1,13.2,0c1.1,0,1.1-0.3,0.7-1.1c-6.5-14.9-13.1-29.8-19.6-44.7C90.8,54.8,85.2,42,79.6,29.1
                            C78.1,25.6,76.5,22.1,74.8,18.3z"/>
                          <path class="st1" d="M74.6,78.9c-3.6,0-7.2,0-10.7,0c-1.1,0-0.9-0.4-0.6-1.1c3.2-7.8,6.4-15.7,9.6-23.5c0.5-1.2,1-2.3,1.5-3.5
                            c0.1-0.2,0-0.5,0.4-0.5c0.3,0,0.3,0.3,0.4,0.5c1.1,2.6,2.1,5.3,3.2,7.9c1.7,4.1,3.4,8.3,5.1,12.4c0.9,2.3,1.8,4.6,2.9,6.9
                            c0.4,0.9-0.1,0.8-0.6,0.8c-3,0-6,0-9,0C76,78.8,75.3,78.8,74.6,78.9C74.6,78.9,74.6,78.9,74.6,78.9z"/>
                        </g>
                      </svg>