<svg version="1.1" id="Layer_1" xmlns="http://www.w3.org/2000/svg" xmlns:xlink="http://www.w3.org/1999/xlink" x="0px" y="0px"
                        viewBox="0 0 150 150" style="enable-background:new 0 0 150 150;" xml:space="preserve">
                        <style type="text/css">
                          .st0{fill:#29282D;}
                        </style>
                        <g>
                          <path class="st0" d="M8.2,75.2c0-10.7,0.1-21.4,0-32c0-3.9,1.5-6.6,5-8.5c19-10.6,38-21.2,56.9-31.8c3.5-2,6.7-2,10.2,0
                            c19.1,10.8,38.3,21.4,57.5,32.1c3,1.7,4.6,4.2,4.6,7.8c0,21.8,0,43.5,0,65.3c0,3.2-1.4,5.6-4.2,7.2c-19.5,10.9-39,21.9-58.4,32.8
                            c-3,1.7-5.8,1.7-8.8,0c-19.3-10.9-38.7-21.8-58.1-32.6c-3.2-1.8-4.7-4.4-4.6-8.1C8.2,96.7,8.2,85.9,8.2,75.2z M75.1,124.8
                            c18.4-0.7,32.6-8.5,42.5-23.9c0.6-1,0.5-1.3-0.5-1.9c-6.3-3.4-12.7-6.9-19-10.4c-1.1-0.6-1.7-0.6-2.4,0.5
                            c-8.2,12-24.6,14.5-35.9,5.4c-11.1-8.9-12.2-25.6-2.4-36.1C67.9,47,86.2,48.3,95.3,61c0.8,1.1,1.3,1.3,2.6,0.6
                            c6.2-3.7,12.5-7.2,18.8-10.8c0.9-0.5,1.2-0.9,0.5-1.9C106.6,32.1,86.7,23.1,67,26.4c-34,5.7-52,44-34.4,73.7
                            C42.1,116.1,56.6,124,75.1,124.8z"/>
                        </g>
                      </svg>