 <svg version="1.1" id="Layer_1" xmlns="http://www.w3.org/2000/svg" xmlns:xlink="http://www.w3.org/1999/xlink" x="0px" y="0px"
                        viewBox="0 0 42 48" style="enable-background:new 0 0 42 48;" xml:space="preserve">
                        <style type="text/css">
                          .st0{fill:#252B33;}
                        </style>
                        <title>ic-technology-drupal</title>
                        <desc>Created with Sketch.</desc>
                        <g id="Page-1">
                          <g id="ic-technology-drupal">
                            <path id="Shape-Copy-4" class="st0" d="M31.5,8.9c-2.5-1.5-4.8-2.1-7.1-3.7C22.9,4.3,21,2,19.3,0C19,3.2,18,4.5,16.9,5.4
                              C14.5,7.3,13,7.8,11,8.9C9.3,9.8,0,15.4,0,27.3C0,39.2,10,48,21.2,48C32.3,48,42,39.9,42,27.7S32.9,9.8,31.5,8.9z M31.7,43.6
                              c-0.2,0.2-2.4,1.7-4.9,1.9C24.4,45.8,21,46,19,44.1c-0.3-0.3-0.2-0.8,0-1c0.2-0.2,0.4-0.3,0.7-0.3c0.3,0,0.2,0,0.4,0.1
                              c0.9,0.7,2.3,1.3,5.3,1.3c3,0,5-0.8,6-1.5c0.4-0.3,0.6,0,0.6,0.1C32,43,32,43.3,31.7,43.6z M23.6,39.4c0.5-0.5,1.3-1.2,2.1-1.5
                              c0.8-0.3,1.2-0.3,1.9-0.3c0.7,0,1.5,0,2.1,0.4c0.6,0.4,0.9,1.2,1.1,1.7c0.2,0.5,0,0.7-0.4,0.9c-0.3,0.2-0.4,0.1-0.7-0.5
                              c-0.3-0.6-0.6-1.2-2.2-1.2s-2.1,0.6-2.9,1.2c-0.8,0.6-1.1,0.9-1.3,0.5C23,40.3,23.1,39.9,23.6,39.4L23.6,39.4z M35.9,39.8
                              c-1.7-0.1-5-5.3-7.1-5.4c-2.7-0.1-8.5,5.6-13.1,5.6c-2.8,0-3.6-0.4-4.5-1c-1.4-1-2.1-2.5-2-4.5c0-3.6,3.4-7,7.7-7
                              c5.4,0,9.2,5.4,11.9,5.3c2.3,0,6.8-4.6,8.9-4.6c2.3,0,3,2.4,3,3.8c0,1.4-0.5,4-1.6,5.6C37.9,39.3,37.2,39.9,35.9,39.8L35.9,39.8z"
                              />
                          </g>
                        </g>
                      </svg>