<svg version="1.1" id="Layer_1" xmlns="http://www.w3.org/2000/svg" xmlns:xlink="http://www.w3.org/1999/xlink" x="0px" y="0px"
                        viewBox="0 0 150 150" style="enable-background:new 0 0 150 150;" xml:space="preserve">
                        <style type="text/css">
                          .st0{fill:#2A292E;}
                        </style>
                        <g>
                          <path class="st0" d="M19.5,75.5c0-22.3,0-44.6,0-66.8c0-4.4,2.7-7.2,7.2-7.2c31.9,0,63.8,0,95.7,0c4.4,0,7.2,2.7,7.2,7.2
                            c0,44.6,0,89.1,0,133.7c0,4.4-2.7,7.2-7.2,7.2c-31.9,0-63.8,0-95.7,0c-4.4,0-7.2-2.7-7.2-7.2C19.5,120.1,19.5,97.8,19.5,75.5z
                            M30.9,71.9c0,19.1,0,38.1,0,57.2c0,1.5,0.3,1.9,1.8,1.9c27.8-0.1,55.7-0.1,83.5,0c1.7,0,2-0.5,2-2.1c0-38.1,0-76.2,0-114.3
                            c0-1.5-0.3-1.9-1.8-1.9c-27.9,0.1-55.8,0.1-83.7,0c-1.6,0-1.8,0.5-1.8,1.9C30.9,33.7,30.9,52.8,30.9,71.9z M75.9,146.7
                            c3.3,0,5.5-2.3,5.7-5.5c0.2-3.2-3-6-5.7-5.8c-3.2,0.2-5.6,2.4-5.6,5.6C70.3,144.3,72.6,146.7,75.9,146.7z"/>
                        </g>
                      </svg>