<svg version="1.1" id="Layer_1" xmlns="http://www.w3.org/2000/svg" xmlns:xlink="http://www.w3.org/1999/xlink" x="0px" y="0px"
                        viewBox="0 0 47 47" style="enable-background:new 0 0 47 47;" xml:space="preserve">
                        <style type="text/css">
                          .st0{fill:#252B33;}
                        </style>
                        <title>ic-technology-joomla</title>
                        <desc>Created with Sketch.</desc>
                        <g id="Page-1">
                          <g id="ic-technology-joomla">
                            <path id="Combined-Shape" class="st0" d="M28.6,14.4l4.5,4.5l4.6,4.6l0.9,0.9c2.6,2.5,3.6,6.2,2.7,9.7c3.1,0.4,5.4,3.1,5.4,6.2
                              c0,3.4-2.8,6.2-6.2,6.2c-3,0-5.5-2.1-6.1-5c-3.7,1.1-7.6,0.1-10.4-2.6l0,0h0l4.6-4.6c1.5,1.5,3.9,1.5,5.4,0c1.5-1.5,1.5-3.9,0-5.4
                              l0,0l-0.9-0.9l-4.6-4.6L24,19L28.6,14.4L28.6,14.4z M7.5,24.4l4.6,4.6c-1.5,1.5-1.5,3.9,0,5.4c0.7,0.7,1.7,1.1,2.7,1.1
                              s2-0.4,2.7-1.1l0,0l0.9-0.9l4.6-4.6l4.5-4.5l4.6,4.6l-4.5,4.5l-4.6,4.6L22.2,39c-2.6,2.6-6.3,3.6-9.8,2.7
                              c-0.7,2.8-3.2,4.8-6.1,4.8c-3.5,0-6.2-2.8-6.2-6.2c0-2.9,2-5.4,4.8-6.1C3.9,30.7,4.9,27,7.5,24.4L7.5,24.4z M6.3,0
                              c3.1,0,5.7,2.2,6.2,5.2C16,4.4,19.6,5.4,22.2,8l0,0l-4.6,4.6c-1.5-1.5-3.9-1.5-5.4,0c-1.5,1.5-1.5,3.9,0,5.4l0,0l0.9,0.9l4.6,4.6
                              l4.5,4.5h0l-4.6,4.6L13,28.1l-4.6-4.6l-0.9-0.9c-2.7-2.7-3.7-6.6-2.6-10.3c-2.8-0.6-4.9-3.1-4.9-6.1c0-1.7,0.7-3.2,1.8-4.4
                              S4.7,0,6.3,0z M40.4,0c3.5,0,6.2,2.8,6.2,6.2c0,3.1-2.3,5.8-5.4,6.2c1,3.6,0,7.5-2.6,10.1l0,0L34,18c1.5-1.5,1.5-3.9,0-5.4
                              s-3.9-1.5-5.4,0l0,0l-0.9,0.9l-4.6,4.6l-4.5,4.5L13.9,18l4.5-4.5L24,8c2.7-2.7,6.6-3.7,10.2-2.6C34.6,2.3,37.3,0,40.4,0z"/>
                          </g>
                        </g>
                      </svg>