<svg version="1.1" id="Layer_1" xmlns="http://www.w3.org/2000/svg" xmlns:xlink="http://www.w3.org/1999/xlink" x="0px" y="0px"
                        viewBox="0 0 150 150" style="enable-background:new 0 0 150 150;" xml:space="preserve">
                        <style type="text/css">
                          .st0{fill:#2B2A2F;}
                        </style>
                        <g>
                          <path class="st0" d="M118.2,75.8c-4.3-6-8.5-11.9-12.7-17.8c-0.7-0.9-1.3-1.9-2-2.8c-1-1.4-0.7-2.3,1-2.7c2-0.5,4.1-0.8,6.1-1.1
                            c4.9-0.8,9.8-1.4,14.6-2.4c2.9-0.6,4.8,0.4,6.5,2.5c3.5,4.4,7.1,8.7,10.6,13.1c1.8,2.2,3.6,4.4,5.4,6.6c1.4,1.7,1.1,2.7-1,3.2
                            c-6,1.6-12.1,3.2-18.1,4.8c-0.5,0.1-1,0.3-1.6,0.5c3.1,4,6,8,9,11.9c3,4,6,8,9,12c1.4,1.9,1.2,2.7-1,3.6
                            c-7.8,2.9-15.6,5.7-23.4,8.5c-8.4,3-16.7,5.9-25.1,8.8c-1.1,0.4-2.3,0.7-3.5,0.8c-1.9,0.2-3.3-0.6-4.3-2.2
                            c-3.1-4.5-5.7-9.4-8.4-14.2c-2.7-4.7-5.4-9.5-8-14.2c-0.6-1-1.2-0.7-1.9-0.6c-9.8,2.5-19.5,5-29.3,7.4c-4.2,1-6.5-0.1-8.3-4
                            C26.3,86.2,21,74.9,15.8,63.7C10.9,53.4,6.1,43,1.3,32.7c-0.2-0.4-0.3-0.8-0.4-1.2c-0.9-3-0.1-4.1,3-4.4c8.4-0.6,16.9-1.4,25.3-2
                            c1.9-0.1,3.7-0.1,5.6-0.1c1.4,0,2.1,1,2.7,2.1c3.5,5.7,7,11.5,10.5,17.3c8.3,13.7,16.7,27.5,25,41.3c0.5,0.8,1,0.7,1.7,0.5
                            c7.7-1.8,15.5-3.7,23.2-5.5C104.7,79.1,111.4,77.5,118.2,75.8z M32,29.2c-7.9,0.7-15.7,1.3-23.5,2c-1.4,0.1-0.7,1-0.5,1.5
                            c4.2,8.6,8.5,17.3,12.8,25.9c3.1,6.3,6.1,12.6,9.2,18.8c2.6,5.4,5.2,10.7,7.8,16.1c0.4,0.8,0.8,1.1,1.8,0.9
                            c8.8-2.1,17.7-4.2,26.5-6.3c0.9-0.2,1.1-0.6,0.6-1.4c-1.2-2-2.4-4.1-3.6-6.2c-9.9-16.8-19.8-33.7-29.7-50.5
                            C33.2,29.4,32.7,29.1,32,29.2z M76.9,92c1.4,2.4,2.7,4.6,4,6.8c3.4,5.7,6.8,11.4,10.1,17.1c0.8,1.4,1.8,1.8,3.3,1.2
                            c1.8-0.8,3.7-1.3,5.6-1.9c12.1-4.1,24.2-8.1,36.3-12.2c1.7-0.6,1.7-0.6,0.7-2c-4.7-6.4-9.5-12.8-14.2-19.3c-0.7-1-1.3-1.1-2.4-0.8
                            c-8,2.1-16,4.1-24,6.2C89.9,88.6,83.5,90.3,76.9,92z M123.9,74.5c-0.1,0,0.2,0,0.5-0.1c5.2-1.3,10.5-2.5,15.7-3.8
                            c1.5-0.4,1.6-0.6,0.6-1.8c-4-5-8-10-11.9-15c-0.5-0.6-1-1-1.8-0.9c-5.4,1-10.8,2-16.2,2.9c-1.2,0.2-1.1,0.6-0.5,1.4
                            c4.1,5.5,8.2,11.1,12.3,16.7C122.8,74.2,123,74.7,123.9,74.5z"/>
                        </g>
                      </svg>