<svg version="1.1" id="Layer_1" xmlns="http://www.w3.org/2000/svg" xmlns:xlink="http://www.w3.org/1999/xlink" x="0px" y="0px"
                     viewBox="0 0 60 36" style="enable-background:new 0 0 60 36;" xml:space="preserve">
                  <style type="text/css">
                    .st0{fill:#252B33;}
                  </style>
              
                  <g id="Page-1">
                    <g id="ic-technology-node-js">
                      <path id="Combined-Shape-Copy-8" class="st0" d="M30.2,21.7l5.4,3.1c0.4,0.2,0.6,0.6,0.6,1v6.1c0,0.4-0.2,0.8-0.6,1l-5.4,3.1
                        C30.1,36,29.9,36,29.7,36c-0.2,0-0.4-0.1-0.6-0.1l-1.8-1c-0.3-0.1-0.1-0.2-0.1-0.2c0.4-0.1,0.4-0.1,0.8-0.4c0,0,0.1,0,0.1,0
                        l1.4,0.8c0.1,0,0.1,0,0.2,0l5.4-3.1c0.1,0,0.1-0.1,0.1-0.1v-6.1c0-0.1,0-0.1-0.1-0.1l-5.4-3.1c-0.1,0-0.1,0-0.2,0l-5.4,3.1
                        c-0.1,0-0.1,0.1-0.1,0.1v6.1c0,0.1,0,0.1,0.1,0.1l1.5,0.8c0.8,0.4,1.3-0.1,1.3-0.5v-6c0-0.1,0.1-0.2,0.2-0.2h0.7
                        c0.1,0,0.2,0.1,0.2,0.2v6c0,1-0.6,1.7-1.6,1.7c-0.3,0-0.6,0-1.2-0.3l-1.4-0.8c-0.4-0.2-0.6-0.6-0.6-1v-6.1c0-0.4,0.2-0.8,0.6-1
                        l5.4-3.1C29.4,21.5,29.9,21.5,30.2,21.7z M31.1,25.9c1.7,0,2.6,0.6,2.7,1.9c0,0,0,0.1,0,0.1c0,0-0.1,0.1-0.1,0.1H33
                        c-0.1,0-0.1-0.1-0.1-0.1c-0.2-0.7-0.6-1-1.7-1c-1.2,0-1.4,0.4-1.4,0.7c0,0.4,0.2,0.5,1.9,0.7c1.7,0.2,2.5,0.5,2.5,1.7
                        c0,1.2-1,1.8-2.7,1.8c-2.4,0-2.9-1.1-2.9-2c0-0.1,0.1-0.2,0.2-0.2h0.7c0.1,0,0.1,0.1,0.1,0.1c0.1,0.7,0.4,1,1.9,1
                        c1.1,0,1.6-0.3,1.6-0.9c0-0.3-0.1-0.6-1.9-0.8c-1.5-0.1-2.4-0.5-2.4-1.6C28.7,26.5,29.6,25.9,31.1,25.9z M40.5,0L40.5,0L44,1.9
                        c0.2,0.1,0.3,0.3,0.3,0.5l0,0.1v16.2c0,0.2-0.1,0.4-0.3,0.5L44,19.3l-5.8,3.3c-0.2,0.1-0.4,0.1-0.6,0l-0.1,0l-5.8-3.3
                        c-0.2-0.1-0.3-0.3-0.3-0.5l0-0.1v-6.5c0-0.2,0.1-0.4,0.3-0.5l0.1-0.1l5.8-3.3c0.2-0.1,0.4-0.1,0.6,0l0.1,0l1.4,0.8
                        c0.1,0,0.2,0,0.2,0C39.9,9.1,40,9.1,40,9L40,9V0.3c0-0.1,0.1-0.2,0.2-0.3C40.3,0,40.4,0,40.5,0z M21.8,8.3c0.2-0.1,0.5-0.1,0.7,0
                        l0,0l5.7,3.2c0.2,0.1,0.3,0.3,0.3,0.6l0,0v6.5c0,0.2-0.1,0.5-0.3,0.6l0,0l-5.7,3.2c-0.2,0.1-0.5,0.1-0.7,0l0,0l-5.7-3.2
                        c-0.2-0.1-0.3-0.3-0.3-0.6l0,0v-6.5c0-0.2,0.1-0.5,0.3-0.6l0,0L21.8,8.3z M53.3,8.3c0.2-0.1,0.5-0.1,0.7,0l0,0l5.7,3.2
                        c0.2,0.1,0.3,0.3,0.3,0.6l0,0v1.6c0,0.2-0.1,0.5-0.3,0.6l0,0l-3.4,2c-0.1,0.1-0.2,0.1-0.4,0c-0.1-0.1-0.2-0.2-0.2-0.3l0,0v-1.6
                        c0-0.1-0.1-0.2-0.2-0.3l0,0l-1.8-1c-0.1-0.1-0.2-0.1-0.4,0l0,0l-1.8,1c-0.1,0.1-0.2,0.2-0.2,0.3l0,0v2c0,0.1,0.1,0.2,0.2,0.3l0,0
                        l5.8,3.3c0.1,0.1,0.2,0.2,0.2,0.3s-0.1,0.2-0.2,0.3l0,0l-3.5,1.9c-0.2,0.1-0.5,0.1-0.7,0l0,0l-5.7-3.2c-0.2-0.1-0.4-0.3-0.4-0.6
                        l0,0v-6.5c0-0.2,0.1-0.5,0.4-0.6l0,0L53.3,8.3z M6.5,8.1c0.1,0,0.2,0,0.3,0.1l0,0l5.8,3.2c0.2,0.1,0.4,0.3,0.4,0.6l0,0l0,8.7
                        c0,0.1-0.1,0.2-0.2,0.3c-0.1,0.1-0.2,0.1-0.4,0l0,0L9,19.1c-0.2-0.1-0.4-0.3-0.4-0.6l0,0v-4.1c0-0.2-0.1-0.5-0.4-0.6l0,0l-1.5-0.8
                        C6.7,13,6.6,13,6.5,13s-0.2,0-0.4,0.1l0,0l-1.5,0.8c-0.2,0.1-0.4,0.3-0.4,0.6l0,0v4.1c0,0.2-0.1,0.5-0.4,0.6l0,0L0.5,21
                        c-0.1,0.1-0.2,0.1-0.3,0C0.1,21,0,20.9,0,20.8l0,0L0,12c0-0.2,0.1-0.5,0.4-0.6l0,0l5.8-3.2C6.2,8.2,6.3,8.1,6.5,8.1L6.5,8.1
                        L6.5,8.1z M37.8,13.1L37.8,13.1l-2,1.1c0,0-0.1,0.1-0.1,0.1l0,0v2.2c0,0,0,0.1,0,0.1l0,0l2,1.1c0,0,0.1,0,0.1,0l0.1,0l2-1.1
                        c0,0,0.1-0.1,0.1-0.1l0,0v-2.2c0,0,0-0.1,0-0.1l0,0l-2-1.1C37.9,13.1,37.9,13.1,37.8,13.1z M53.7,14l1.1,0.6c0,0,0.1,0.1,0.1,0.1
                        V16c0,0.1,0,0.1-0.1,0.1l-1.1,0.6c0,0-0.1,0-0.1,0l-1.1-0.6c0,0-0.1-0.1-0.1-0.1v-1.2c0-0.1,0-0.1,0.1-0.1l1.1-0.6
                        C53.6,14,53.6,14,53.7,14z"/>
                    </g>
                  </g>
                  </svg>