<svg version="1.1" id="Layer_1" xmlns="http://www.w3.org/2000/svg" xmlns:xlink="http://www.w3.org/1999/xlink" x="0px" y="0px"
                        viewBox="0 0 150 150" style="enable-background:new 0 0 150 150;" xml:space="preserve">
                        <style type="text/css">
                          .st0{fill:#2A292E;}
                          .st1{fill:#29292D;}
                        </style>
                        <g>
                          <path class="st0" d="M0.9,22.5c0.4-0.1,0.6,0.2,0.9,0.5c9.3,9.4,20.8,14.5,33.6,16.8c11.8,2.2,23.8,2.8,35.7,3.3
                            c13.3,0.5,26.6,0.3,39.9,0.4c8.6,0.1,17.3,0.2,25.8,1.7c2.7,0.5,5.4,1,7.9,2.2c4.2,2,5.2,5.2,2.9,9.2c-2.3,4-5.5,7.2-8.8,10.3
                            c-9,8.5-18.7,16.3-28,24.4c-2.2,1.9-4.4,3.8-6.8,5.9c-0.2-0.8,0.3-1.2,0.5-1.6c3.1-4.5,6.7-8.5,10.5-12.4
                            c3.6-3.7,7.2-7.5,10.6-11.4c1.6-1.9,3.1-3.9,3.9-6.3c1.1-3,0.5-4.9-2.1-6.7c-2.7-1.9-5.9-2.6-9.1-3.2c-10.3-1.7-20.6-1.8-31-1.7
                            c-13,0.2-25.9-0.2-38.7-2c-9.5-1.3-18.8-3.7-27.5-8C12.9,39.8,6.7,33.6,2.4,25.5c-0.5-0.9-1-1.8-1.5-2.6
                            C0.8,22.8,0.9,22.7,0.9,22.5z"/>
                          <path class="st1" d="M98.2,117.4c0,5.8-4.8,10.7-10.6,10.7c-5.8,0-10.7-4.8-10.7-10.6c-0.1-5.9,4.8-10.8,10.7-10.8
                            C93.5,106.6,98.1,111.3,98.2,117.4z"/>
                          <path class="st0" d="M28.2,117.2c0-5.9,4.8-10.6,10.7-10.5c5.9,0.1,10.6,4.9,10.6,10.7c0,5.8-4.9,10.6-10.7,10.7
                            C33,128,28.2,123.1,28.2,117.2z"/>
                        </g>
                      </svg>