<svg version="1.1" id="Layer_1" xmlns="http://www.w3.org/2000/svg" xmlns:xlink="http://www.w3.org/1999/xlink" x="0px" y="0px"
                        viewBox="0 0 150 150" style="enable-background:new 0 0 150 150;" xml:space="preserve">
                        <style type="text/css">
                          .st0{fill:#1D1C1C;}
                          .st1{fill:#1E1D1D;}
                        </style>
                        <g>
                          <path class="st0" d="M110.9,103.2c-0.2,2.2-0.5,4.4-0.9,6.5c-1.5,6.9-4.4,13.2-8.6,18.8c-4.2,5.6-9.4,10.1-15.5,13.5
                            c-6.5,3.6-13.5,5.6-20.9,6c-8,0.4-15.6-1-22.9-4.3c-6.4-2.9-12-7.1-16.6-12.4c-5.5-6.4-9.2-13.7-10.9-22c-0.8-3.6-1.1-7.3-1.1-11
                            c0.1-6.6,1.5-12.9,4.2-18.9c2.8-6.3,6.7-11.7,11.8-16.3c6.4-5.8,13.9-9.7,22.3-11.6c1.9-0.4,3.8-0.7,5.7-0.9
                            c0.7-0.1,0.7-0.1,0.5,0.6c-1.9,6.5-2.4,13.1-1.1,19.8c1.3,6.9,4.1,13.1,8.5,18.6c5.2,6.4,11.7,11,19.6,13.5
                            c5.1,1.6,10.3,2.4,15.6,2C104,105,107.4,104.2,110.9,103.2z"/>
                          <path class="st0" d="M59.1,63.6c0-21.3,17.4-38.7,38.7-38.7c21.4,0,38.7,17.4,38.7,38.9c-0.1,21.4-17.5,38.6-38.8,38.5
                            C76.4,102.2,59.1,84.8,59.1,63.6z"/>
                          <path class="st1" d="M96.9,21.9c-7.5,0.3-14.6,2.2-21,6.2c-3.4,2.1-6.5,4.6-9.1,7.6c-3,3.4-5.5,7.2-7.3,11.4
                            c-0.1,0.3-0.3,0.5-0.7,0.5c-4.4,0.3-8.7,1.2-12.9,2.6c-0.4,0.1-0.5,0-0.7-0.3c-2.4-3.8-3.9-7.9-4.4-12.4C39.9,31,41,24.9,44.1,19.2
                            c4.7-8.5,11.8-13.7,21.4-15.6c6.8-1.3,13.2-0.3,19.4,2.8c6.4,3.3,11.1,8.3,14.1,14.9c0.2,0.5,0.1,0.5-0.4,0.5
                            C98,21.9,97.5,21.9,96.9,21.9z"/>
                        </g>
                      </svg>