<svg version="1.1" id="Layer_1" xmlns="http://www.w3.org/2000/svg" xmlns:xlink="http://www.w3.org/1999/xlink" x="0px" y="0px"
                        viewBox="0 0 44 48" style="enable-background:new 0 0 44 48;" xml:space="preserve">
                        <style type="text/css">
                          .st0{fill:#252B33;}
                        </style>
                        <title>ic-technology-phone-gap</title>
                        <desc>Created with Sketch.</desc>
                        <g id="Page-1">
                          <g id="ic-technology-phone-gap">
                            <path id="Combined-Shape-Copy-6" class="st0" d="M17.2,4.2c0,0-0.3-4.8,4.6-4.2C26.8,0.7,38,2.4,38,2.4s3.2,0.8,3.4,4.5l0,0
                              c-0.1-1.8,0-0.9,0,0.1l0,0.2l0,0l0,0l0-0.1l0,0.2l0,0l0,0.2l0-0.1c0,0,0-0.1,0-0.1l0-0.1l0,0.1c0.3,5.3,2.1,32.6,2.1,33.2
                              c0,0-0.2,3.9-3.2,4.5l0,0L23.4,48c0,0-4.8,0.8-4.9-4.3C18.4,39.3,17.2,4.2,17.2,4.2z M7.6,8c0,0-0.3-3.8,4-3.3
                              c1.2,0.1,2.8,0.3,4.5,0.5c0,1.2,0.1,3.5,0.2,6.5c-1.2-0.1-2.4-0.2-3.2-0.3c-3.2-0.2-3,2.6-3,2.6s0.3,15.4,0.4,18.1
                              c0.1,3.7,3.2,3.2,3.2,3.2l0,0l3.4-0.3c0.1,3.2,0.2,5.9,0.2,7.5l0,0l-4.8,0.6c0,0-4.2,0.7-4.3-3.5C8.1,36.3,7.6,9.1,7.6,8L7.6,8z
                              M24,8.6c-3.8-0.3-3.5,3.2-3.5,3.2s0.7,18.9,0.8,22.2c0.1,4.5,3.7,3.9,3.7,3.9l0,0l12.6-1.3c3.5-0.6,3.2-3.4,3.2-3.4
                              S39.7,16.1,39.6,13C39.5,10.2,37,9.6,37,9.6S27.8,8.9,24,8.6z M0,12.5c0-0.1-0.1-2.7,3-2.3c0.9,0.1,2.1,0.2,3.4,0.3
                              c0,1.2,0.1,2.8,0.1,4.6c-1-0.1-1.8-0.1-2.4-0.2c-2.4-0.2-2.2,1.8-2.2,1.8s0.2,10.8,0.3,12.7c0.1,2.6,2.4,2.3,2.4,2.3l0,0l2.3-0.2
                              c0,2,0.1,3.9,0.1,5.3l0,0l-3.3,0.4c0,0-3.1,0.5-3.2-2.4C0.4,32.4,0,13.5,0,12.5L0,12.5z M22.1,10.3c0.4-0.5,1.2-0.5,1.8-0.5
                              c1,0.1,0.2,0,0,0l0,0l0.1,0l0,0l0,0l0.1,0c1.1,0.1,2.5,0.2,4,0.3l0.4,0c0.2,3.9,0.9,20.7,1.2,26.1c-2.4,0.2-7,1.8-7.3-1.8l0,0
                              l2.3-0.2c3-0.5,2.8-2.8,2.8-2.8l0,0c0-0.4-0.6-13.7-0.7-16.2c-0.1-2.3-2.2-2.8-2.2-2.8s-1.2-0.1-2.9-0.3
                              C21.7,11.5,21.7,10.8,22.1,10.3z M11.6,12.9c0.8-0.9,3.4-0.2,4.4-0.1c0.1,0.2,0.1,0.4,0.1,0.7l0,0l0,0l0,0l0,0l0,0l0,0l0.1,2.2
                              c0.1,2.2,0.1,4.5,0.1,6.7l0,2.2c0.1,3,0.4,6.1,0.2,9.1c-1.9,0.2-4.9,1.1-4.9-1.7c0-0.2,0-0.5,0-0.8l0,0l1.2-0.1
                              c2.2-0.3,2.1-2,2.1-2s0-10-0.1-11.7c-0.1-1.6-1.6-2-1.6-2s-0.8,0-1.8-0.1C11.3,14.6,11,13.5,11.6,12.9z"/>
                          </g>
                        </g>
                      </svg>