<svg version="1.1" id="Layer_1" xmlns="http://www.w3.org/2000/svg" xmlns:xlink="http://www.w3.org/1999/xlink" x="0px" y="0px"
                        viewBox="0 0 60 29" style="enable-background:new 0 0 60 29;" xml:space="preserve">
                        <style type="text/css">
                          .st0{fill:#252B33;}
                        </style>
                        <title>ic-technology-php</title>
                        <desc>Created with Sketch.</desc>
                        <g id="Page-1">
                          <g id="ic-technology-php">
                            <path id="Shape-Copy" class="st0" d="M15.1,5.9c4.5,0.3,6.8,2.5,6.8,6.4c0,6.7-5.4,10.6-10.2,10.3H6.5l-1.1,5.9H0L4.5,5.9H15.1z
                              M12.8,10.1H9.1l-1.4,8.4h3.4c2.6-0.3,4.8-1.1,5.1-5.9C16.2,10.9,14.8,10.1,12.8,10.1L12.8,10.1z M20.8,22.6L25.4,0h5.4l-1.1,5.9
                              h5.1c4.5,0.3,6.3,2.5,5.7,5.3l-2,11.5h-5.7l2-10.3c0.3-1.4,0.3-2.2-1.7-2.2h-4.3l-2.6,12.6H20.8L20.8,22.6z M53.2,5.9
                              c4.5,0.3,6.8,2.5,6.8,6.4c0,6.7-5.4,10.6-10.2,10.3h-5.1l-1.1,5.9h-5.4l4.5-22.6H53.2z M50.9,10.1h-3.7l-1.4,8.4h3.4
                              c2.6-0.3,4.8-1.1,5.1-5.9C54.3,10.9,52.9,10.1,50.9,10.1L50.9,10.1z"/>
                          </g>
                        </g>
                      </svg>