<svg version="1.1" id="Layer_1" xmlns="http://www.w3.org/2000/svg" xmlns:xlink="http://www.w3.org/1999/xlink" x="0px" y="0px"
                        viewBox="0 0 150 150" style="enable-background:new 0 0 150 150;" xml:space="preserve">
                        <style type="text/css">
                          .st0{fill:#29282D;}
                          .st1{fill:#2A292D;}
                        </style>
                        <g>
                          <path class="st0" d="M65.5,110.8c-1.2-1-2.5-1.9-3.7-2.9c-4.3-3.3-10.1-2.3-13,2.2c-1.3,2.1-1,4.1,1,5.7c1.7,1.4,3.4,2.9,5.2,4.7
                            c-4.4,0.4-8.6,0.9-12.7,1.3c-2.5,0.3-5.1,0.5-7.6,0.8c-0.9,0.1-1.2-0.2-1.3-1.1c-1.9-17.7-3.7-35.4-5.6-53
                            c-1.3-12.3-2.6-24.5-4-36.8c-0.1-1.1,0-1.5,1.2-1.6c5.5-0.4,10.9-1,16.4-1.5c0.9-0.1,1.2-0.4,1.3-1.3c0.4-4.9,1.8-9.4,4.5-13.6
                            c4.1-6.3,10-9.5,17.3-10.4c4.7-0.6,9.3-0.6,13.8,1c8.4,2.9,12.8,9.1,14.7,17.5c0.3,1.3,0.7,1.7,2,1.5c6.5-0.7,12.9-1.3,19.4-2
                            c1.2-0.1,1.8,0,1.9,1.4c2.4,21.9,4.9,43.9,7.4,65.8c0.9,7.9,1.8,15.8,2.8,23.7c0.1,1.1-0.2,1.4-1.2,1.5c-2.8,0.2-5.5,0.5-8.3,0.8
                            c-0.9,0.1-1.1-0.2-1.2-1c-0.2-3.6-0.8-7.1-2.3-10.5c-0.8-1.7-1.7-3.3-3-4.6c-2.5-2.5-5.5-3-8.7-1.3c-0.8,0.4-1.3,0.4-1.9-0.3
                            c-3-2.8-6.3-3.1-9.8-0.8c-0.7,0.4-1.1,0.4-1.7-0.1c-2.7-2.2-5.7-2.4-8.7-0.6c-1.3,0.8-1.3,0.2-1.5-0.8c-0.6-3.9-1.3-7.8-2-11.6
                            c-0.9-4.8-3.7-7.1-8-6.5c-4.2,0.7-6.9,4.4-6.2,8.9c1.1,7.2,2.2,14.5,3.3,21.7c0.2,1.2,0.3,2.3,0.5,3.5
                            C65.7,110.6,65.6,110.7,65.5,110.8z M68.4,5.1c-5.9,0-9.6,1.7-12.3,4.9c-4,4.7-5.4,10.4-6.2,16.3c-0.1,1,0.5,0.8,1,0.7
                            c3.2-0.3,6.4-0.6,9.6-0.9c7.9-0.7,15.7-1.4,23.6-2.1c1.3-0.1,1.5-0.5,1.1-1.7c-1.7-5-4.3-9.5-8.3-13.1C74,6.7,70.6,5.1,68.4,5.1z
                            M71.7,4c1.1,0.5,1.9,0.9,2.6,1.3c6.5,3.5,10.3,9.2,12.7,16c0.8,2.1,0.7,2.1,2.9,1.8c0.2,0,0.3-0.1,0.5-0.1c0.9,0,0.9-0.4,0.7-1.1
                            c-1-3.4-2.4-6.6-4.5-9.5C83.1,7.4,78.3,4.4,71.7,4z M57.1,6.7c-1.9,0.6-3.5,1.7-5,3.1c-4.4,4.3-6.5,9.8-7.7,15.7
                            c-0.4,2.2-0.4,2.2,1.6,2c0.4,0,0.8-0.1,1.2-0.1c0.8,0,1.2-0.3,1.2-1.3c-0.1-3.5,0.8-6.9,2.2-10.1C52.3,12.6,54.5,9.6,57.1,6.7z"/>
                          <path class="st1" d="M71.2,122.5c-1.9-12.2-3.8-24.2-5.7-36.3c-0.2-1.2-0.1-2.5,0.2-3.6c0.6-1.9,1.7-2.8,3.6-2.6c1.8,0.1,2.7,1,3,3
                            c1.3,7.8,2.6,15.6,3.8,23.3c0.2,1.2,1.9,2,2.8,1.3c0.4-0.3,0.2-0.7,0.2-1c-0.1-2,0-4,0.6-5.9c0.6-2,1.7-3.1,3.3-3.2
                            c1.8-0.1,3.2,0.8,4,2.8c0.7,1.6,0.9,3.4,0.9,5.1c0,1.8,1.3,0.7,2,0.9c1,0.3,0.9-0.4,0.8-1.1c-0.2-1.3-0.2-2.6,0.1-4
                            c0.3-1.8,1.3-3,2.7-3.2c1.8-0.3,3.1,0.3,4.1,1.8c1.2,1.9,1.7,4,1.8,6.1c0.1,2.2,1.6,1.1,2.6,1.3c1.3,0.2,0.8-0.8,0.8-1.4
                            c0-1.2-0.2-2.3-0.2-3.5c0-1.7,0.8-2.4,2.5-2.3c2.2,0.1,3.6,1.2,4.5,3.2c1.5,3.3,2.1,6.8,2.5,10.4c0.6,5.8-0.5,11.3-1.5,16.9
                            c-0.7,3.8-1,7.6-1,11.5c0,1-0.3,1.3-1.2,1.4c-8.4,1.1-16.8,2.3-25.3,3.4c-0.7,0.1-1.4,0.2-2-0.6c-8.2-12-18.1-22.5-28.6-32.4
                            c-1.4-1.3-1.4-1.7,0-3c1.9-1.8,4.7-1.9,6.7-0.3c2.3,1.8,4.5,3.7,6.8,5.5c0.6,0.5,0.9,1.1,0.9,1.8c0,0.5,0,1,0.1,1.5
                            C67.4,122.8,67.4,122.8,71.2,122.5z"/>
                        </g>
                      </svg>