<svg version="1.1" id="Layer_1" xmlns="http://www.w3.org/2000/svg" xmlns:xlink="http://www.w3.org/1999/xlink" x="0px" y="0px"
                          viewBox="0 0 48 48" style="enable-background:new 0 0 48 48;" xml:space="preserve">
                        <!-- <style type="text/css">
                          .st0{fill:#066aed;}
                        </style> -->
                    
                        <g id="Page-1">
                          <g id="ic-technology-phthon">
                            <path id="Combined-Shape" class="st0" d="M41,12c0.3,0,6.8-0.2,6.8,11.8C47.7,36,40,35.2,40,35.2H23.8v1.6h11.6l0,5.4
                              c0,0,0.8,5.3-11.4,5.3c-12.7,0-11.7-6.3-11.7-6.3V30.7c0-6,5.8-6.2,6.4-6.2l11.5,0c6.9,0,6.7-6.8,6.7-6.8V12L41,12z M30.4,39.7
                              c-1.2,0-2.1,0.9-2.1,2.1c0,1.2,0.9,2.1,2.1,2.1s2.1-0.9,2.1-2.1C32.5,40.6,31.6,39.7,30.4,39.7z M23.7,0c12.7,0,11.7,6.3,11.7,6.3
                              l0,0v10.5c0,6-5.8,6.2-6.4,6.2l-11.5,0c-6.3,0-6.7,5.7-6.7,6.6l0,5.8l-4.1,0C6.5,35.5,0,35.6,0,23.7c0-12.2,7.8-11.4,7.8-11.4
                              h16.2v-1.6H12.4l0-5.4C12.3,5.3,11.6,0,23.7,0z M17.3,3.7c-1.2,0-2.1,0.9-2.1,2.1s0.9,2.1,2.1,2.1s2.1-0.9,2.1-2.1
                              S18.5,3.7,17.3,3.7z"/>
                          </g>
                        </g>
                      </svg>