<svg version="1.1" id="Layer_1" xmlns="http://www.w3.org/2000/svg" xmlns:xlink="http://www.w3.org/1999/xlink" x="0px" y="0px"
                        viewBox="0 0 150 150" style="enable-background:new 0 0 150 150;" xml:space="preserve">
                        <style type="text/css">
                          .st0{fill:#2B2A2F;}
                          .st1{fill:#FCFCFC;}
                          .st2{fill:#2D2C31;}
                        </style>
                        <g>
                          <path class="st0" d="M70,132.8c-0.3,0.5-0.5,0.9-0.6,1.3c-0.8,2.9-0.8,2.7-3.7,3.2c-6.5,1-13.1,0.7-19.6,0.6
                            c-4.3-0.1-8.5-0.6-12.7-1.6c-0.9-0.2-1.7-0.2-2.1,1c-0.7,1.9-2,3.5-3.8,4.5c-3.1,1.7-6.3,0.7-7.9-2.5c-1.3-2.5-1.6-5.1-1.5-7.9
                            c0-0.7,0-1.4-0.4-2.1c-1.5-2.8-0.9-5.4,1.7-7.5c5.9-4.9,12.6-8.6,19.5-11.9c3.5-1.6,7-3.1,10.3-5.1c2.2-1.3,3.7-3.1,4.7-5.4
                            c0.4-1,0.4-1.4-0.9-1.3c-3.6,0.1-7.2,0.3-10.9,0.1c-6.3-0.2-12.1-2-17.3-5.5c-2.2-1.5-3.1-3.9-4-6.1c-3.2-7.9-5.4-16-6.7-24.4
                            c-0.3-2-0.4-4-0.7-6c-0.8-6.2,2.5-10.4,6.7-14.1c9-8,19.9-11.8,31.2-15.1c2.6-0.8,5.3-1.4,7.9-2.1c0.9-0.2,1.3-0.7,1.6-1.6
                            c1.9-5.9,5-11,10.5-14.2c2.3-1.3,4.7-2.4,7.3-2.7c1.5-0.2,3,0.2,4.5,0.3c0.2,0,0.4,0.1,0.4,0.2c0.8,2,2.4,1.3,3.8,1.4
                            c10.5,0.1,21.1,0.1,31.6,0.4c6.3,0.2,12.5,0.2,18.8,0.3c1.2,0,1.5,0.2,1.1,1.4c-0.4,1.3-0.9,2.4-2.1,3.2
                            c-6.5,4.2-9.4,10.7-11.3,17.8c-1.9,7.3-2.6,14.7-3.1,22.2c-1,13.1-1.6,26.3-4.8,39.2c-0.7,2.9-1.6,5.8-3.1,8.4
                            c-0.4,0.7-0.5,1.2,0.4,1.7c1.9,1.2,2.8,3.2,3.3,5.3c0.9,3.7,0.4,7.3-1.4,10.7c-1.2,2.2-2.9,3.9-5.5,4.3c-1.8,0.2-4.2-1.1-5.3-3.1
                            c-0.9-1.5-1.4-3.1-1.4-4.9c-4.7,3-9.4,6-14.1,9c-0.2,0.1-0.3,0.3-0.5,0.4c-1.1,0.7-2.5,1.1-3.1,2.1c-0.6,0.9,0.5,2.2,0.6,3.3
                            c0.5,5.6-0.5,10.9-5.4,14.4c-4.1,2.9-10.1,1.9-12-4.9C69.8,137.2,70.1,135.1,70,132.8z M77,9.3c-1.5,0.3-2.9,1-4.2,1.7
                            c-5.5,3.1-8.3,8.1-9.9,14c-0.2,0.9-0.5,1.4-1.6,1.6c-7.1,1.8-14.2,3.7-21,6.4c-7.6,3-14.7,6.6-20.5,12.5c-2.7,2.8-4.5,5.9-4,10.1
                            c0.3,2.8,0.6,5.6,1.1,8.4c1.5,7.9,3.7,15.7,6.8,23.1c0.9,2.1,2.3,3.6,4.3,4.7c5.5,3.1,11.5,4.1,17.7,4c4.1-0.1,8.1-0.4,12.4-0.4
                            c-0.6,1.6-1.2,3-1.8,4.5c-1.2,3.2-3.2,5.7-6.2,7.3c-3.5,1.9-7.1,3.6-10.7,5.3c-6.3,3-12.3,6.5-17.9,10.7c-3.1,2.4-3.1,4.8,0.2,6.9
                            c4.3,2.7,9.3,3.4,14.2,4.2c4.6,0.8,9.3,1,14,1.2c5.2,0.3,10.4-0.2,15.6-0.8c0.7-0.1,0.8-0.4,0.9-1c0.6-2.4,1.6-4.7,3-6.7
                            c-0.3-0.1-0.5-0.1-0.7,0c-5.4,2-10.9,2.8-16.7,2.9c-4.8,0.1-9.5-0.2-14.2-1.1c-2.9-0.5-5.9-1.2-8.6-2.7c-1.6-0.9-1.7-1.7-0.2-2.7
                            c2.6-1.8,5.2-3.6,7.9-5.2c5.7-3.3,11.8-5.7,17.7-8.4c4.3-2,7.9-4.6,8.7-9.7c0.2-1.3,0.4-2.6,0.5-3.8c0-0.9,0.3-1.1,1.2-1.2
                            c3.5-0.4,7.1-0.5,10.6-0.9c5.8-0.7,11.6-1.6,17.2-3c4.4-1.1,8.6-2.5,13-4.2c-0.4,2.7-1,5.1-1.1,7.5c-0.3,5.4-2.6,9.8-6.3,13.6
                            c-3.3,3.3-7.3,5.6-11.1,8.2c-3,2-6.1,3.7-9.1,5.6c1.9,0.8,3.8,0.9,5.3,2.3c0.6,0.6,1,0.1,1.5-0.2c5.2-3.4,10.4-6.7,15.6-10.1
                            c1.2-0.8,1.9-1.7,2.1-3.2c0.2-1.7,0.8-3.3,1.6-4.8c1.4-2.5,3.2-4.6,6.3-4.9c0.9-0.1,1-0.8,1.3-1.4c4.1-8.7,5.2-18.1,6.1-27.5
                            c0.5-4.4,0.8-8.8,1.1-13.2c0.6-7.2,1.1-14.5,2.3-21.7c0.9-5.1,2.1-10.1,4.3-14.8c1.5-3.3,3.6-6.2,6.1-8.7c-3.8,1-7.4,2.3-9.9,5.7
                            c-3.1,4.3-5.3,9.1-6.6,14.2c-1,4.1-1.5,8.3-2.2,12.4c-1,5.8-2,11.6-3,17.4c-0.5,2.8-1,5.6-1.5,8.4c-0.1,0-0.3,0-0.4-0.1
                            c0.8-10.9,1.6-21.7,2.5-32.8c-1.4,0.7-2.6,1.3-3.8,1.9c-0.7,0.3-0.9,0.8-0.9,1.5c-0.2,2.2-0.5,4.4-0.8,6.5c-0.6,4.7-1.3,9.4-1.9,14
                            c-0.5,3.6-1,7.2-1.4,10.8c-0.1,0-0.3,0-0.4,0c0.4-10.2,0.8-20.4,1.2-30.8c-1.4,0.6-2.6,1.2-3.9,1.6c-0.6,0.2-0.6,0.6-0.6,1
                            c-0.8,8.5-1.6,17.1-2.4,25.6c-0.1,1-0.3,2-0.5,3c-0.1,0-0.2,0-0.3,0c0-9.3,0-18.7,0-28.1c-0.3,0.1-0.5,0.1-0.8,0.2
                            c-2.4,0.5-3.8,1.4-3.8,4.4c0,6.5-0.6,13-1,19.5c-0.1,1.8-0.3,3.6-0.5,5.5c-0.6-0.3-0.5-0.6-0.5-0.9c-0.2-7.8-0.5-15.7-0.7-23.5
                            c-0.1-2.9,0-2.8-2.8-2.1c-1.4,0.3-1.7,0.9-1.7,2.3c-0.1,7.5-0.2,15.1-0.4,22.6c0,1.3,0,2.5-0.6,3.8c-0.6-9.1-1.2-18.3-1.9-27.4
                            c-1,0.2-2,0.4-3,0.6c-0.8,0.2-1.5,0.5-1.3,1.7c0.2,1.2,0.3,2.5,0.3,3.7c0,7.3,0.1,14.5,0.1,21.8c0,0.4,0.2,0.9-0.3,1.5
                            c-0.3-2.9-0.5-5.6-0.8-8.3c-0.6-5.6-1.4-11.1-1.6-16.7C74,52.1,73.7,52,71,52.6c-1.1,0.2-1.5,0.6-1.4,1.7c0.2,3.3,0.3,6.6,0.5,9.8
                            c0.2,5.3,0.5,10.6,0.7,16c0,0.1-0.2,0.2-0.4,0.3c-0.6-4.6-1.2-9-1.8-13.5c-0.5-3.7-1-7.4-1.5-11c-0.1-0.8,0.3-1.8-0.4-2.3
                            c-0.7-0.6-1.6,0.3-2.4,0.2c-1.1-0.1-1.5,0.4-1.4,1.5c0.3,3.3,0.5,6.6,0.8,10c0.4,4.8,0.8,9.6,1.3,14.4c0,0.3,0.1,0.7-0.6,0.7
                            c-1.4-8.1-2.8-16.2-4.1-24.3c-0.1-0.8-0.2-1.9-1.3-1.4c-1,0.5-3.1-0.8-2.8,1.7c0.5,4.2,1,8.4,1.5,12.6c0.5,4.3,0.9,8.5,1.4,12.8
                            c0,0-0.2,0.1-0.4,0.2c-0.2-0.6-0.4-1.3-0.5-1.9c-1.6-7.9-3.2-15.8-4.8-23.7c-0.1-0.5-0.3-1.1-1-0.9c-0.8,0.2-1.7,0.3-2.5,0.3
                            c-0.7,0-0.6,0.5-0.5,0.9c1.4,7,2.1,14,3.3,21c0.2,1.1,0.7,2.3,0.3,3.7c-0.7-0.5-0.7-1-0.8-1.5c-1.8-7.6-3.7-15.1-5.4-22.7
                            c-0.2-0.9-0.5-1.1-1.3-1.1c-3.8,0.1-7.6,0.1-11.4-0.3c-2.5-0.3-5-0.6-7.3-1.7c-2.9-1.3-3.4-3.3-1.1-5.7c1.6-1.6,3.2-3.2,5-4.6
                            c8.8-6.9,19-10.4,29.9-12.3c1.2-0.2,1.4,0.2,1.5,1.2c0.1,2.7,0.3,5.3,0.4,8c0.1,1.9,0,3.9,0.8,5.9c1-1.1,1.2-2.4,1.5-3.5
                            c1.1-3.6,2.1-7.3,3.1-10.9c0.3-1.3,1-1.7,2.3-1.6c1.6,0.1,3.3-0.1,4.9-0.2c10.3-0.3,20.6-0.2,31,0.2c0.8,0,2.1,0.9,2.3-0.1
                            c0.2-1.1-1.3-1.3-2.2-1.6c-4.8-1.5-9.7-1.8-14.6-2c-6.8-0.3-13.6-0.5-20.4,0c-1.2,0.1-1.5-0.3-1.5-1.5c-0.2-6.6,2.4-11.8,8-15.5
                            c0.2-0.1,0.3-0.1,0.2-0.3C77.3,9.2,77.1,9.3,77,9.3z M51.3,127.1c2.3,0.2,5.3-0.3,8.2-0.7c4.1-0.5,8.1-1.4,11.6-3.5
                            c7.5-4.5,15.1-8.9,22.2-14c5.7-4.1,9-9.2,9.4-16.2c0.1-1.4-0.2-1.6-1.4-1.2c-5,1.7-10.1,2.8-15.2,3.7c-6,1-12,1.7-18,2
                            c-1.3,0.1-1.6,0.7-1.7,1.7c-0.2,2.6-0.9,5.1-2.5,7.2c-0.4,0.5-0.1,0.8-0.1,1.3c0.2,2.6,0.4,5.1-0.6,7.6c-1.1,3.1-4.1,4.4-6.6,2.7
                            c-1.3-0.9-2-2.3-2.2-3.8c-0.1-0.8-0.4-1.1-1.2-0.7c-6.7,2.9-13.4,5.8-19.4,10.1c-0.4,0.3-1.1,0.4-0.9,1c0.1,0.5,0.8,0.5,1.3,0.7
                            C39.5,126.4,45,127.1,51.3,127.1z M119,19.7c-7.5-0.3-14.7-0.7-21.9-0.9c-7.2-0.2-14.4-0.8-21.6-0.7c-0.5,0-0.9-0.1-1.3-0.3
                            c-0.7-0.5-1.1-0.2-1.4,0.5c-0.7,1.6-0.9,3.4-1.2,5.1c-0.1,0.8,0.3,0.9,1,0.9c2-0.1,4.1-0.2,6.1-0.2c7,0,13.9,0,20.9,0.9
                            c2.6,0.3,5.2,0.7,7.7,1.7c2.2,0.8,3.4,2.3,3.6,4.6c0.1,1.4-0.1,2-1.8,1.9c-5.7-0.4-11.4-0.9-17.1-1c-7-0.1-14-0.3-20.9,0.3
                            c-0.8,0.1-1.2,0.3-1.5,1.1c-1.7,5.4-3.6,10.7-5.3,16c-0.2,0.7-0.5,1.4-1.5,1.9c2.5,0,4.7-0.6,6.9-1c9.7-1.8,19.1-4.3,28.3-7.9
                            c3.9-1.5,7.6-3.2,11.2-5.3c0.8-0.5,1.5-0.9,2.5-0.8c0.7,0.1,0.8-0.2,0.9-0.8C114,30.1,115.9,24.9,119,19.7z M41.6,53.5
                            c6.3,0.1,12.5-0.8,18.7-1.4c1.5-0.1,1.2-1.2,1.1-2.1c-0.7-4.9-1.6-9.9-2.3-14.8c-0.2-1.2-0.6-1.2-1.5-1c-1.3,0.3-2.6,0.6-3.9,0.9
                            c-9.8,2.5-18.7,6.8-26,14c-1.7,1.6-1.5,2.3,0.7,3c0.1,0,0.2,0,0.3,0C32.9,53.4,37.2,53.5,41.6,53.5z M129.8,11.7
                            c-1,0.1-1.9-0.4-2.9-0.4c-6.9-0.1-13.8-0.2-20.7-0.3c-7.6-0.2-15.3-0.5-22.9-0.6c-3.2,0-5.8,1.4-7.9,3.9c-0.3,0.3-0.7,0.7-0.4,1.2
                            c0.3,0.4,0.8,0.8,1.3,0.6c2.7-0.8,5.4,0.2,8.1,0.1c3.8-0.1,7.7,0.2,11.5,0.3c7.7,0.3,15.4,0.7,23.1,1c0.5,0,1.1,0.1,1.6-0.3
                            C123.4,14.9,126.4,13.1,129.8,11.7z M86.1,131.5c0.1-1-0.3-2.8-1.3-4.4c-1.8-3.3-5.2-4.1-8.3-1.9c-4,2.8-6,9.4-4.2,14.3
                            c1.9,5.1,6.4,6.1,10.1,2.2C85,139.1,86,136,86.1,131.5z M117,112c0-2.9-0.6-5.1-1.7-6.6c-1.6-2.4-4.1-2.6-6.1-0.6
                            c-3.2,3.2-4,9.9-1.7,14c1.6,2.9,4.4,3.2,6.6,0.8C116.3,117.3,116.8,114.4,117,112z"/>
                          <path class="st1" d="M77,9.3c0.1,0,0.3-0.1,0.4,0c0.1,0.2,0,0.2-0.2,0.3C77.2,9.5,77.1,9.4,77,9.3z"/>
                          <path class="st0" d="M76.8,138.4c3.1,0.6,5-0.8,5.5-4.1c0.4-2.8-0.8-4.3-3.6-4.6c1.3-1.6,3.3-1.8,4.7-0.4c2.9,2.8,1.5,9.7-2.4,11.1
                            C79.2,141,78.1,140.5,76.8,138.4z"/>
                          <path class="st2" d="M111.3,108.4c1.1-1.4,2.6-1.5,3.7-0.2c1.8,2.1,1.4,7.3-0.7,9.2c-1.5,1.3-2.8,1-4-1c2.4,0.2,3.5-0.9,3.8-3.6
                            C114.2,109.8,113.5,108.6,111.3,108.4z"/>
                        </g>
                      </svg>