<svg version="1.1" id="Layer_1" xmlns="http://www.w3.org/2000/svg" xmlns:xlink="http://www.w3.org/1999/xlink" x="0px" y="0px"
                        viewBox="0 0 150 150" style="enable-background:new 0 0 150 150;" xml:space="preserve">
                        <style type="text/css">
                          .st0{fill:#29282D;}
                        </style>
                        <g>
                          <path class="st0" d="M75.9,138.3C51,95.9,26.4,53.8,1.5,11.4c0.8,0,1.2,0,1.7,0c18.4,0,36.9,0,55.3,0c1.1,0,1.7,0.4,2.2,1.3
                            c4.7,7.9,9.4,15.7,14.2,23.5c0.3,0.4,0.5,0.9,0.9,1.5c0.4-0.6,0.7-1,1-1.5c4.7-7.8,9.4-15.6,14-23.4c0.6-1,1.2-1.4,2.4-1.4
                            c18.3,0,36.5,0,54.8,0c0.5,0,1.3-0.1,1.4,0.2c0.4,0.5-0.3,1-0.6,1.5C125.8,52.7,102.7,92.3,79.6,132
                            C78.4,134,77.2,136.1,75.9,138.3z M75.8,112.2c17-29.2,34-58.3,51-87.6c-5.9,0-11.5,0-17.1,0c-1.3,0-2,0.4-2.6,1.6
                            C97,43.7,86.9,61.3,76.8,78.8c-0.3,0.5-0.4,1.1-1,1.4c-0.4-0.6-0.7-1.1-1-1.7C64.6,61,54.4,43.5,44.3,26c-0.6-1.1-1.3-1.5-2.5-1.4
                            c-5.1,0.1-10.3,0-15.4,0c-0.5,0-1.2-0.3-1.4,0.2c-0.2,0.5,0.3,0.9,0.6,1.3c14.4,24.6,28.9,49.3,43.3,73.9
                            C71.1,104.1,73.4,108,75.8,112.2z"/>
                        </g>
                      </svg>