<svg version="1.1" id="Layer_1" xmlns="http://www.w3.org/2000/svg" xmlns:xlink="http://www.w3.org/1999/xlink" x="0px" y="0px"
                        viewBox="0 0 48 48" style="enable-background:new 0 0 48 48;" xml:space="preserve">
                        <style type="text/css">
                          .st0{fill:#252B33;}
                        </style>
                        <title>ic-technology-wordpress</title>
                        <desc>Created with Sketch.</desc>
                        <g id="Page-1">
                          <g id="ic-technology-wordpress">
                            <path id="surface1-copy" class="st0" d="M24,0C10.8,0,0,10.8,0,24s10.8,24,24,24s24-10.8,24-24S37.2,0,24,0z M24,1.1
                              c12.6,0,22.9,10.3,22.9,22.9c0,12.6-10.3,22.9-22.9,22.9S1.1,36.6,1.1,24C1.1,11.4,11.4,1.1,24,1.1L24,1.1z M24,3.4
                              c-6.9,0-13.4,3.5-17.2,9.3c0.5,0,0.9,0,1.3,0c2.2,0,5.5-0.3,5.5-0.3c1.1-0.1,1.2,1.6,0.1,1.7c0,0-1.1,0.2-2.4,0.2l7.5,22.3
                              l4.5-13.5l-3.2-8.8c-1.1-0.1-2.2-0.2-2.2-0.2c-1.1-0.1-1-1.8,0.1-1.7c0,0,3.4,0.3,5.4,0.3c2.2,0,5.5-0.3,5.5-0.3
                              c1.1-0.1,1.2,1.6,0.1,1.7c0,0-1.1,0.2-2.4,0.2l7.4,22.1l2.1-6.9c1-2.7,1.6-4.9,1.6-6.7c0-2.5-0.9-4.3-1.7-5.6c-1-1.7-2-3.2-2-4.9
                              c0-1.9,1.4-3.6,3.4-3.6h0.3C34.1,5.3,29.1,3.4,24,3.4L24,3.4z M42.1,14.1c0.1,0.7,0.1,1.4,0.1,2.1c0,2.1-0.4,4.4-1.6,7.4
                              l-6.3,18.2c6.3-3.7,10.2-10.5,10.2-17.8C44.6,20.4,43.7,17.1,42.1,14.1L42.1,14.1z M5.2,15.6C4,18.3,3.4,21.1,3.4,24
                              c0,8.1,4.7,15.2,11.6,18.5L5.2,15.6z M24.4,25.8l-6.2,17.9c1.8,0.5,3.8,0.8,5.8,0.8c2.4,0,4.7-0.4,6.8-1.1
                              c-0.1-0.1-0.1-0.2-0.1-0.3L24.4,25.8z"/>
                          </g>
                        </g>
                      </svg>