<svg version="1.1" id="Layer_1" xmlns="http://www.w3.org/2000/svg" xmlns:xlink="http://www.w3.org/1999/xlink" x="0px" y="0px"
                        viewBox="0 0 150 150" style="enable-background:new 0 0 150 150;" xml:space="preserve">
                        <style type="text/css">
                          .st0{fill:#29282D;}
                        </style>
                        <g>
                          <path class="st0" d="M124.8,73.1c0-2.3,0.2-5.3,0-8.3c-0.5-9.1-4.1-16.9-10.7-23.2c-4.9-4.6-10.5-8.4-16.1-12
                            c-5.9-3.8-12-7.3-17.2-12c-1.6-1.4-3.1-2.9-3.9-5.1c-1.2-3.4,1.1-9.9,6-11c7.4-1.6,13.9,0.8,20.3,4c5.5,2.7,10.4,6.3,14.9,10.4
                            c8.3,7.6,15.3,16.1,19.6,26.7c2.7,6.7,3.6,13.6,3.5,20.7c-0.2,8.2-2.7,15.5-7.3,22.2c-1.2,1.7-2.8,3.1-5,3.3
                            c-1.8,0.1-2.8-0.8-3.2-2.6C124.6,82,125,77.9,124.8,73.1z"/>
                          <path class="st0" d="M67.9,31.8c3-0.2,6.3,0.1,9.5,0.8c5,1.1,9.9,2.4,13.9,5.9c0.9,0.8,1.7,1.6,2,2.8c0.4,1.4-0.1,2.4-1.4,2.9
                            c-1.6,0.6-3.3,1.1-5,1.5c-3.1,0.6-6.3,0.9-9.4,1.6c-6,1.3-11.7,3.2-17.3,5.9C48.2,59,39.1,68.2,31.4,79c-2.4,3.3-4.7,6.8-7,10.2
                            c-3.2,4.6-10.1,4.1-13.4-0.8C8,84,7.6,79.5,8.4,74.9c0.9-4.5,3-8.7,5.6-12.6c6.6-9.7,15.2-17.4,25.4-23.2c4.1-2.4,8.6-4.1,13.2-5.3
                            C57.6,32.5,62.5,31.6,67.9,31.8z"/>
                          <path class="st0" d="M70,98.5c-0.2-7.9,2.1-14.3,7.1-19.6c2.3-2.4,4.9-4,8.5-3.5c1.7,0.2,2.9,1.4,3.4,3c1,3.1,0.5,6.3,0.7,9.4
                            c0.2,4.5,1,8.8,3.3,12.7c2.7,4.5,6.8,7,11.9,8.1c2.9,0.6,5.9,0.8,8.8,0.5c3.4-0.3,6.7-0.9,10-1.8c3-0.8,6.1-1.3,9.2-1.4
                            c3.8,0,5.8,1.6,5.2,6c-0.6,4.8-2.6,9.1-6.3,12.4c-3.5,3.1-7.7,5.2-12.2,6.7c-3.7,1.2-7.5,1.5-11.3,1.7c-3.3,0.2-6.6-0.3-9.8-0.9
                            c-6.2-1.1-11.6-3.8-16.3-7.9c-4.5-3.9-7.9-8.6-10-14.3C70.7,105.8,69.7,101.9,70,98.5z"/>
                          <path class="st0" d="M35.5,103.6c-0.2-3.7,0.1-7.8,0.9-11.8c2.5-12.3,8.2-22.7,18.8-29.9c3.8-2.6,8-4.3,12.4-5.6
                            c2.9-0.9,5.8-1.8,8.9-1.9c2.1,0,4.2,0.6,6.1,1.5c1.9,0.9,2.1,2.2,0.7,3.8c-2.4,2.6-5,4.9-7.7,7.2c-6.3,5.5-12.1,11.6-15.8,19.3
                            c-1.6,3.3-2.6,6.7-3.3,10.3c-1,5-0.8,10-0.4,15c0.2,3.2,0.9,6.4,1.7,9.6c0.7,2.7,1,5.5,1.7,8.1c0.9,3.7,1.3,7.4,1.7,11.1
                            c0.2,2.1-0.1,4.2-0.5,6.2c-0.4,2.1-2.9,2.9-5,2.2c-4.1-1.4-6.4-4.5-8.7-7.8c-2.8-4.1-5.2-8.4-7-13c-1.3-3.4-2.4-6.8-3.2-10.4
                            C35.9,113.1,35.5,108.6,35.5,103.6z"/>
                          <path class="st0" d="M104.5,78.2c-5.5-0.4-10.3-2.4-12.9-7.8c-1.9-3.9-2-7.9-0.6-12c1.1-3.3,2.8-6,5.8-7.9c2-1.2,4.3-0.9,6.4-1.3
                            c6.5-1.2,10.4,2.3,13.5,7.1c1.5,2.3,1.9,5,1.4,7.8c-0.5,2.6-0.8,5.2-2.3,7.4C113.2,75.8,109.5,78,104.5,78.2z"/>
                        </g>
                      </svg>